<?xml version="1.0" encoding="utf-8"?>
<!-- Generator: Adobe Illustrator 24.0.2, SVG Export Plug-In . SVG Version: 6.00 Build 0)  -->
<svg version="1.1" id="Layer_1" xmlns="http://www.w3.org/2000/svg" xmlns:xlink="http://www.w3.org/1999/xlink" x="0px" y="0px"
	 viewBox="0 0 500 500" style="enable-background:new 0 0 500 500;" xml:space="preserve">
<style type="text/css">
	.st0{fill:#F5F5F5;}
	.st1{fill:#E0E0E0;}
	.st2{fill:#EBEBEB;}
	.st3{fill:#FAFAFA;}
	.st4{fill:#263238;}
	.st5{fill:#407BFF;}
	.st6{fill:none;}
	.st7{fill:#FFFFFF;}
	.st8{opacity:0.3;}
	.st9{opacity:0.4;}
	.st10{fill:#455A64;}
	.st11{opacity:0.6;}
	.st12{fill:#FFBE9D;}
	.st13{opacity:0.5;}
</style>
<g>
	<g id="freepik--background-complete--inject-3">
		<path class="st0" d="M191.4,458.3c-1.4-1.2-4.5-5-2.1-9.4c0.9-1.6,2.8-2.4,4.4-3.1c1.7-0.6,3.4-1.4,4.9-2.5c2.6-2.3,3.4-6,5.1-9
			c2-3.4,5.8-6,9.7-5.8c4.5,0.2,8.3,3.9,10,8.1s1.8,8.9,1.8,13.5c0,2.5-0.1,5.4-1.9,7.1s-4.3,1.6-6.6,1.5l-24.8-0.8"/>
		<path class="st1" d="M238.8,390.1h-65.2l11.8,70.1c0.5,3,2.7,5.4,5.6,6.2l0.2,0.1c0.2,0,0.4,0.1,0.6,0.1c0.4,0.1,0.9,0.1,1.3,0.2
			v0.1l0.3,0h29.1c0.5,0,1.1-0.1,1.6-0.2c3.5-0.5,6.2-3.3,6.6-6.8l5.7-48.3l0.3-1.9l0,0l2.2-19.1L238.8,390.1z M226.5,434.8h-6.7
			l0.7-20.3h7.8L226.5,434.8z M228.9,414.5h6.4l-2.4,20.3h-5.8L228.9,414.5z M209.8,457.4l-0.4-17.7h9.7l-0.6,17.7H209.8z
			 M199.3,439.7h9.4l0.4,17.7h-8.4L199.3,439.7z M200.1,457.4h-7.9c-0.7-4.8-1.7-11-2.8-17.7h9.3L200.1,457.4z M199,434.8l-1.6-20.3
			h10.7l0.5,20.3H199z M209.3,434.8l-0.5-20.3h11.1l-0.7,20.3H209.3z M208.7,409.6l-0.4-18.8h12.4l-0.7,18.8L208.7,409.6z
			 M208.1,409.6H197l-1.5-18.8h12L208.1,409.6z M196.4,409.6h-11.7c-0.4-2.6-0.8-5.1-1.2-7.3c-1.2-7.6-1.7-10.5-1.9-11.5h13.3
			L196.4,409.6z M196.8,414.5l1.6,20.3h-9.6c-0.3-2.1-0.6-4.1-1-6.2c-0.8-4.8-1.5-9.6-2.2-14.1H196.8z M188,434.8h-6.3l-3.4-20.3
			h6.5C185.8,420.8,186.9,427.8,188,434.8z M188.8,439.7c1,6.1,1.9,12.1,2.8,17.7h-6.1l-3-17.7H188.8z M219,457.4l0.6-17.7h6.4
			l-1.5,17.7H219z M220.6,409.6l0.6-18.8h9l-1.6,18.8H220.6z M181,390.8c0.3,1.4,1.4,8.8,3,18.8h-6.5l-3.1-18.8H181z M230.3,457.4
			h-5l1.5-17.7h5.6L230.3,457.4z M235.9,409.6h-6.6l1.6-18.8h7.2L235.9,409.6z"/>
		
			<rect x="312.5" y="82.6" transform="matrix(0.9859 -0.1671 0.1671 0.9859 -14.4013 62.3328)" class="st2" width="101.3" height="68.3"/>
		<path class="st3" d="M407.4,74.7c-0.2,0.4-0.5,0.7-0.8,1.1l-2.4,2.9l-8.8,10.6L365.9,124l-0.2,0.3l-0.3-0.2l-0.8-0.4l-40.4-22.5
			L312,94.2l-3.3-1.9c-0.4-0.2-0.8-0.5-1.1-0.7c0.4,0.1,0.8,0.3,1.2,0.6l3.4,1.8l12.3,6.7l40.5,22.3l0.8,0.4l-0.6,0.1l29.7-34.6
			l9.1-10.4l2.5-2.8C406.8,75.3,407.1,74.9,407.4,74.7z"/>
		<path class="st3" d="M319,158.9c-0.2-0.1,5.7-10.6,13.3-23.4s13.9-23.1,14.1-23s-5.7,10.6-13.3,23.4S319.2,159,319,158.9z"/>
		<path class="st3" d="M379.4,106c0.2-0.2,9.1,7.7,20,17.7s19.6,18.1,19.4,18.3s-9.1-7.7-20-17.6S379.2,106.2,379.4,106z"/>
		
			<rect x="54.2" y="257" transform="matrix(0.9961 -8.854660e-02 8.854660e-02 0.9961 -23.9628 8.1295)" class="st0" width="50.9" height="34.3"/>
		<path class="st1" d="M103.4,254.8c-0.1,0.2-0.3,0.3-0.4,0.5l-1.3,1.4l-4.8,5l-16.2,16.2l-0.1,0.1l-0.2-0.1l-0.4-0.3l-19.3-12.9
			l-5.8-4l-1.6-1.1c-0.2-0.1-0.4-0.3-0.5-0.4c0.2,0.1,0.4,0.2,0.6,0.3l1.6,1l5.9,3.8l19.4,12.8l0.4,0.3h-0.3l16.3-16.1l5-4.9
			l1.4-1.3C103.1,255,103.3,254.9,103.4,254.8z"/>
		<path class="st1" d="M55.8,293.5c-0.1-0.1,3.3-5.1,7.6-11.2s7.9-11,8-11s-3.3,5.1-7.6,11.2S55.9,293.6,55.8,293.5z"/>
		<path class="st1" d="M88.2,269.4c0.1-0.1,4.3,4.2,9.3,9.6s9.1,9.9,9,10s-4.3-4.2-9.3-9.6S88.1,269.5,88.2,269.4z"/>
		<path class="st1" d="M463.4,218c0,0,0-0.3,0.1-0.8s0.2-1.3,0.4-2.2c0.3-1.9,0.8-4.8,1.4-8.4c1.3-7.2,3.1-17.5,5.3-30.1l0.2,0.2
			l-60.2-10.7l0,0l0.3-0.2c-2.7,14.8-5.2,28.8-7.4,41.3l-0.2-0.3l43.3,7.9l12.4,2.3l3.3,0.6l0.9,0.2L463.4,218l-0.3,0l-0.8-0.1
			l-3.3-0.6l-12.4-2.1l-43.5-7.7H403v-0.2c2.3-12.6,4.8-26.6,7.4-41.4l0-0.2h0.3l0,0l60.2,10.8h0.2v0.2l-5.5,30.1
			c-0.7,3.6-1.2,6.4-1.5,8.3c-0.2,0.9-0.3,1.6-0.4,2.2S463.4,218,463.4,218z"/>
		<path class="st1" d="M470.8,176.7c-0.2,0.2-0.4,0.4-0.7,0.5l-2,1.3l-7.5,4.9l-24.8,15.9c-0.7-0.1-0.2,0-0.4-0.1l0,0l0,0v-0.1
			l-0.1-0.1l-0.2-0.2l-0.3-0.4l-0.6-0.9c-0.4-0.6-0.9-1.1-1.3-1.7l-2.5-3.3l-4.7-6.2l-7.9-10.6l-5.3-7.1l-1.4-2
			c-0.2-0.2-0.3-0.5-0.5-0.7c0.2,0.2,0.4,0.4,0.5,0.6l1.5,1.9l5.5,7.1l8,10.5l4.7,6.2l2.5,3.3l1.3,1.7l0.6,0.9l0.3,0.4l0.2,0.2
			l0.1,0.1v0.1l0,0l0,0c-0.1,0,0.3,0.1-0.3,0l24.8-15.7l7.6-4.7l2.1-1.3C470.6,176.8,470.8,176.6,470.8,176.7z"/>
		<path class="st1" d="M427.4,187.9c0.1,0.1-5.3,4.6-12,9.9s-12.2,9.6-12.3,9.5s5.3-4.5,12-9.9S427.3,187.8,427.4,187.9z"/>
		<path class="st1" d="M463.7,218.6c-0.1,0.1-3.6-6.1-7.8-13.7s-7.5-13.9-7.4-14s3.6,6.1,7.8,13.7S463.8,218.5,463.7,218.6z"/>
		<path class="st1" d="M196.3,295.9v11.6h-50c-3.2,0-5.8-2.6-5.8-5.8l0,0c0-3.2,2.6-5.8,5.8-5.8"/>
		<path class="st3" d="M179.7,298.4h16.6l0,0v6.8l0,0h-16.6c-1.8,0-3.3-1.5-3.3-3.3v-0.2C176.4,299.8,177.9,298.4,179.7,298.4z"/>
		<path class="st0" d="M196.3,284.3v11.6h-50c-3.2,0-5.8-2.6-5.8-5.8l0,0c0-3.2,2.6-5.8,5.8-5.8H196.3z"/>
		<path class="st1" d="M179.7,286.7h16.6l0,0v6.8l0,0h-16.6c-1.8,0-3.3-1.5-3.3-3.3V290C176.4,288.2,177.9,286.7,179.7,286.7z"/>
		<polygon class="st1" points="160.2,265.6 152.2,284.3 157.3,284.3 160.9,274.3 		"/>
		<polygon class="st2" points="184.5,248.8 187.6,284.3 161.7,284.3 158.8,248.8 		"/>
		<polygon class="st3" points="182,251.6 184.7,281.4 165.2,281.6 162.6,251.4 		"/>
		<polygon class="st1" points="177.9,255.7 179.4,276.2 169,276.2 167.2,255.7 		"/>
	</g>
	<g id="freepik--Floor--inject-3">
		<path class="st4" d="M477.1,466.9c0,0.1-101.2,0.3-226.1,0.3S24.9,467,24.9,466.9s101.2-0.3,226.1-0.3S477.1,466.7,477.1,466.9z"
			/>
	</g>
	<g id="freepik--Screen--inject-3">
		<g id="freepik--new-email--inject-3">
			<rect x="47" y="45.6" class="st3" width="269.8" height="183"/>
			<path class="st3" d="M318,228.8H47.8V45.5H318V228.8z M317.8,45.6H48v183h269.8"/>
			<path class="st3" d="M318,228.8H47.8V45.5H318V228.8z M317.8,45.6H48v183h269.8"/>
			<rect x="47.9" y="45.6" class="st5" width="270" height="18.1"/>
			<g>
				<rect x="47.9" y="200.6" class="st2" width="270" height="28.1"/>
			</g>
			<polygon class="st6" points="80.7,213.3 78.8,213 78,211.3 77.2,213 75.4,213.3 76.7,214.6 76.7,214.6 76.4,216.4 78,215.5 
				79.7,216.4 79.3,214.6 79.4,214.5 			"/>
			<path class="st6" d="M66.2,211.8c-0.6,0-1.1,0.5-1.1,1.1c0,0.6,0.5,1.1,1.1,1.1c0.6,0,1.1-0.5,1.1-1.1
				C67.3,212.3,66.8,211.8,66.2,211.8C66.2,211.8,66.2,211.8,66.2,211.8z"/>
			<path class="st4" d="M99.2,214.3h2.2l0.7,1.5h0.5l-2.2-4.7h-0.1l-2.2,4.7h0.5L99.2,214.3z M100.3,211.9l0.9,1.9h-1.8L100.3,211.9
				z"/>
			<rect x="97.6" y="216.7" class="st4" width="5.3" height="0.4"/>
			<path class="st4" d="M66.4,210.8H66c-1,0.1-1.9,1-1.8,2c0.2,1.5,0.9,2.9,1.8,4c0,0,0.1,0.2,0.4,0c1-1.1,1.6-2.5,1.8-4
				C68.2,211.7,67.4,210.9,66.4,210.8z M66.2,214c-0.6,0-1.1-0.5-1.1-1.1c0-0.6,0.5-1.1,1.1-1.1c0.6,0,1.1,0.5,1.1,1.1
				C67.3,213.5,66.8,214,66.2,214C66.2,214,66.2,214,66.2,214z"/>
			<path class="st4" d="M91.1,215.4c0,0.6-0.5,1.1-1.1,1.1c-0.6,0-1.1-0.5-1.1-1.1l0,0v-3.6c0-0.4,0.3-0.7,0.7-0.7
				c0.4,0,0.7,0.3,0.7,0.7v3.1l0,0c0,0.2-0.2,0.4-0.5,0.3c-0.2,0-0.3-0.2-0.3-0.3v-2.4h-0.3v2.3l0,0v0.1l0,0c0,0.3,0.3,0.6,0.7,0.6
				c0.3,0,0.6-0.2,0.7-0.6l0,0v-0.1c0,0,0,0,0-0.1l0,0v-3l0,0c0-0.6-0.4-1-1-1s-1,0.4-1,1l0,0v3.8l0,0c0.1,0.8,0.7,1.3,1.5,1.3
				c0.7-0.1,1.2-0.6,1.3-1.3l0,0v-3.1h-0.3L91.1,215.4z"/>
			<path class="st4" d="M79.1,212.7l-1-2.1l-1,2.1l-2.3,0.3l1.7,1.6l-0.5,2.3l2.1-1.1l2.1,1.1l-0.4-2.3l1.7-1.7L79.1,212.7z
				 M79.6,216.4l-1.6-0.9l-1.6,0.9l0.3-1.7v-0.1l-1.3-1.3l1.9-0.3l0.8-1.7l0.8,1.7l1.8,0.3l-1.3,1.2l-0.1,0.1L79.6,216.4z"/>
			<path class="st4" d="M120.2,208h-0.3v10.9h0.3V208z M120,218.8L120,218.8z"/>
			<rect x="109.3" y="211.8" class="st4" width="4.3" height="4.6"/>
			<polygon class="st4" points="110.6,210.7 110.6,211.1 112.2,211.1 112.2,210.7 113.6,210.7 113.6,211.4 109.3,211.4 109.3,210.7 
							"/>
			<rect x="110.6" y="210.4" class="st4" width="1.6" height="0.4"/>
			<rect x="110.6" y="210.7" class="st4" width="1.6" height="0.4"/>
			<polygon class="st4" points="130,214.3 131.3,212.9 131.5,213.1 130,214.6 128.5,213.1 128.7,212.9 			"/>
			<rect x="300.2" y="53" class="st6" width="3.4" height="3.3"/>
			<polygon class="st4" points="292.7,54.9 296.5,54.9 296.5,54.7 292.7,54.7 296.5,54.7 296.5,54.5 292.7,54.5 			"/>
			<polygon class="st4" points="311.4,52.9 311.1,52.7 309.4,54.4 307.6,52.7 307.4,52.9 309.1,54.7 307.4,56.4 307.6,56.7 
				309.4,55 311.1,56.7 311.4,56.4 309.6,54.7 			"/>
			<path class="st4" d="M299.8,56.7h4.2v-4.1h-4.1L299.8,56.7z M300.2,53h3.3v3.3h-3.3V53z"/>
			<path class="st4" d="M311.8,105.1c0-0.8-0.6-1.4-1.4-1.5h-5.6c-1.1,0-2,0.9-2,2s0.9,2,2,2h4.5v-0.4H305c-0.9,0-1.6-0.7-1.6-1.7
				s0.7-1.7,1.6-1.7h5.3c0.6,0,1.1,0.5,1.1,1.1c0,0.6-0.5,1.1-1.1,1.1h-4.5c-0.3-0.1-0.5-0.3-0.5-0.6c0-0.3,0.2-0.5,0.5-0.6h3.5
				v-0.4h-3.5c-0.6,0-1,0.4-1,1s0.4,1,1,1h4.6C311.2,106.6,311.8,105.9,311.8,105.1z"/>
			<path class="st7" d="M60.2,51.6v5h-0.6l-3-3.7v3.7h-0.7v-5h0.6l3,3.7v-3.7H60.2z"/>
			<path class="st7" d="M65,54.9h-3c0.1,0.6,0.6,1.1,1.3,1.1c0.4,0,0.8-0.2,1.1-0.5l0.4,0.4c-0.4,0.4-0.9,0.6-1.5,0.6
				c-1,0.1-1.9-0.7-2-1.8c0-0.1,0-0.1,0-0.2c0-1,0.8-1.9,1.8-1.9c0,0,0.1,0,0.1,0c1,0,1.8,0.8,1.9,1.8c0,0.1,0,0.1,0,0.2
				C65,54.8,65,54.8,65,54.9z M62,54.4h2.4c-0.1-0.7-0.6-1.2-1.3-1.1C62.5,53.4,62.1,53.8,62,54.4z"/>
			<path class="st7" d="M71.5,52.8l-1.4,3.8h-0.7l-1.1-2.8l-1.1,2.8h-0.7l-1.4-3.8h0.7l1.1,3l1.1-3h0.6l1.1,3l1.1-3H71.5z"/>
			<path class="st7" d="M77.8,55.9v0.6h-3.6v-5h3.5v0.6h-2.8v1.5h2.5v0.6h-2.5v1.6L77.8,55.9z"/>
			<path class="st7" d="M85.1,54.4v2.2h-0.7v-2.1c0-0.7-0.3-1.1-1-1.1c-0.6,0-1.1,0.4-1.1,1c0,0.1,0,0.1,0,0.2v1.9h-0.7v-2.1
				c0-0.7-0.3-1.1-1-1.1c-0.6,0-1.1,0.4-1.1,1c0,0.1,0,0.1,0,0.2v1.9h-0.7v-3.8h0.7v0.6c0.3-0.4,0.8-0.6,1.3-0.6
				c0.5,0,1,0.2,1.3,0.7c0.3-0.5,0.9-0.7,1.4-0.7c0.8-0.1,1.5,0.5,1.6,1.3C85.1,54.1,85.1,54.3,85.1,54.4z"/>
			<path class="st7" d="M89.3,54.3v2.3h-0.6v-0.5c-0.3,0.4-0.8,0.6-1.2,0.5c-0.8,0-1.4-0.5-1.4-1.1s0.4-1.1,1.5-1.1h1.1v-0.1
				c0-0.6-0.3-0.9-1-0.9c-0.4,0-0.9,0.1-1.2,0.4l-0.3-0.5c0.4-0.3,1-0.5,1.6-0.5C88.8,52.8,89.3,53.3,89.3,54.3z M88.7,55.4v-0.5h-1
				c-0.7,0-0.9,0.3-0.9,0.6s0.3,0.6,0.8,0.6C88.1,56.1,88.5,55.8,88.7,55.4z"/>
			<path class="st7" d="M90.5,51.6c0-0.2,0.2-0.5,0.4-0.5c0,0,0,0,0,0c0.2,0,0.4,0.2,0.5,0.4c0,0,0,0,0,0c0,0.3-0.2,0.5-0.5,0.5
				C90.7,52.1,90.5,51.9,90.5,51.6L90.5,51.6z M90.6,52.8h0.7v3.8h-0.7L90.6,52.8z"/>
			<path class="st7" d="M92.6,51.3h0.7v5.3h-0.7V51.3z"/>
			<path class="st4" d="M56.2,69.9h-1.7v-0.6h4.1v0.6h-1.7v4.3h-0.7L56.2,69.9z"/>
			<path class="st4" d="M58.5,72.4c0-1.1,0.8-2,1.9-2.1c1.1,0,2,0.8,2.1,1.9c0,1.1-0.8,2-1.9,2.1c0,0-0.1,0-0.1,0
				c-1,0.1-1.9-0.7-2-1.7C58.5,72.5,58.5,72.5,58.5,72.4z M61.8,72.4c0-0.7-0.6-1.3-1.3-1.3s-1.3,0.6-1.3,1.3l0,0
				c0,0.7,0.6,1.3,1.3,1.3S61.8,73.1,61.8,72.4z"/>
			<path class="st4" d="M65,71c0-0.3,0.2-0.5,0.5-0.5c0,0,0,0,0,0c0.3,0,0.5,0.2,0.5,0.4c0,0,0,0,0,0c0,0.3-0.2,0.5-0.4,0.5
				c0,0,0,0,0,0C65.2,71.5,65,71.3,65,71C65,71,65,71,65,71z M65,73.9c0-0.3,0.2-0.5,0.5-0.5c0,0,0,0,0,0c0.3,0,0.5,0.2,0.5,0.5
				s-0.2,0.5-0.5,0.5C65.2,74.4,65,74.2,65,73.9C65,73.9,65,73.9,65,73.9L65,73.9z"/>
			<path class="st4" d="M55.5,88.5c0-1.4,1.1-2.5,2.5-2.5c0,0,0.1,0,0.1,0c0.7,0,1.4,0.3,1.9,0.8l-0.5,0.4c-0.4-0.4-0.9-0.6-1.4-0.6
				c-1.1,0-1.9,0.9-1.9,1.9s0.9,1.9,1.9,1.9c0.5,0,1-0.2,1.4-0.6l0.5,0.4c-0.5,0.5-1.2,0.8-1.9,0.8c-1.4,0.1-2.6-1-2.6-2.4
				C55.5,88.6,55.5,88.6,55.5,88.5z"/>
			<path class="st4" d="M60.4,89.1c0-1,0.8-1.9,1.8-1.9c0.1,0,0.1,0,0.2,0c0.6,0,1.2,0.3,1.6,0.8l-0.5,0.3c-0.2-0.3-0.6-0.5-1-0.5
				c-0.7,0.1-1.3,0.7-1.2,1.4c0.1,0.6,0.6,1.2,1.2,1.2c0.4,0,0.8-0.2,1-0.5l0.5,0.3c-0.3,0.5-0.9,0.8-1.5,0.8c-1,0.1-1.9-0.7-2-1.7
				C60.4,89.2,60.4,89.2,60.4,89.1z"/>
			<path class="st4" d="M66.4,87.7c0-0.3,0.2-0.5,0.5-0.5c0.3,0,0.5,0.2,0.5,0.5c0,0.3-0.2,0.5-0.5,0.5
				C66.6,88.2,66.4,87.9,66.4,87.7C66.4,87.7,66.4,87.7,66.4,87.7z M66.4,90.5c0-0.3,0.2-0.5,0.5-0.5c0.3,0,0.5,0.2,0.5,0.5
				c0,0.3-0.2,0.5-0.5,0.5C66.7,91,66.4,90.8,66.4,90.5C66.4,90.6,66.4,90.5,66.4,90.5z"/>
			<path class="st4" d="M54.8,107.3l0.3-0.6c0.5,0.4,1,0.6,1.6,0.6c0.9,0,1.2-0.3,1.2-0.8c0-1.2-3-0.4-3-2.3c0-0.8,0.6-1.4,1.9-1.4
				c0.6,0,1.1,0.1,1.6,0.4l-0.2,0.6c-0.4-0.3-0.9-0.4-1.4-0.4c-0.8,0-1.2,0.4-1.2,0.8c0,1.2,3,0.4,3,2.3c0,0.8-0.6,1.4-1.9,1.4
				C56,108,55.3,107.8,54.8,107.3z"/>
			<path class="st4" d="M63,104.1v3.8h-0.7v-0.6c-0.3,0.4-0.8,0.6-1.3,0.6c-0.8,0.1-1.5-0.5-1.6-1.3c0-0.1,0-0.2,0-0.3v-2.2h0.7v2.1
				c0,0.7,0.4,1.1,1,1.1c0.6,0,1.1-0.4,1.2-1c0-0.1,0-0.1,0-0.2v-2L63,104.1z"/>
			<path class="st4" d="M68.2,106c0.1,1-0.7,1.9-1.7,1.9c-0.1,0-0.1,0-0.2,0c-0.5,0-1-0.2-1.3-0.6v0.6h-0.7v-5.3H65v2.1
				c0.3-0.4,0.8-0.6,1.3-0.6c1,0,1.9,0.7,1.9,1.7C68.2,105.9,68.2,105.9,68.2,106z M67.5,106c0-0.7-0.6-1.2-1.3-1.2
				c-0.7,0-1.2,0.6-1.2,1.3c0,0.7,0.6,1.2,1.3,1.2c0.7,0,1.3-0.5,1.3-1.2C67.5,106.1,67.5,106,67.5,106z"/>
			<path class="st4" d="M67.9,109.1l0.2-0.5c0.2,0.1,0.4,0.2,0.6,0.2c0.4,0,0.6-0.2,0.6-0.7v-4h0.7v3.9c0.1,0.6-0.4,1.2-1,1.2
				c-0.1,0-0.1,0-0.2,0C68.4,109.3,68.1,109.2,67.9,109.1z M69.1,103c0-0.2,0.2-0.5,0.4-0.5c0,0,0,0,0,0c0.2,0,0.5,0.2,0.5,0.4
				c0,0,0,0,0,0c0,0.3-0.2,0.5-0.5,0.5C69.3,103.5,69.1,103.3,69.1,103L69.1,103z"/>
			<path class="st4" d="M74.6,106.3h-3c0.1,0.7,0.7,1.2,1.4,1.1c0.4,0,0.8-0.2,1.1-0.4l0.4,0.4c-0.4,0.4-0.9,0.6-1.5,0.6
				c-1,0.1-1.9-0.7-2-1.8c0-0.1,0-0.1,0-0.2c0-1,0.8-1.9,1.8-1.9c0,0,0.1,0,0.1,0c1,0,1.8,0.8,1.8,1.8c0,0,0,0,0,0.1
				C74.6,106.1,74.6,106.2,74.6,106.3z M71.6,105.8H74c-0.1-0.7-0.7-1.1-1.4-1.1C72.1,104.8,71.6,105.2,71.6,105.8z"/>
			<path class="st4" d="M75.2,106c0-1,0.8-1.9,1.8-1.9c0.1,0,0.1,0,0.2,0c0.6,0,1.2,0.3,1.5,0.8l-0.5,0.3c-0.2-0.3-0.6-0.5-1-0.5
				c-0.7,0.1-1.3,0.7-1.2,1.4c0.1,0.6,0.6,1.2,1.2,1.2c0.4,0,0.8-0.2,1-0.5l0.5,0.3c-0.3,0.5-0.9,0.8-1.5,0.8c-1,0.1-1.9-0.7-2-1.8
				C75.2,106.1,75.2,106.1,75.2,106z"/>
			<path class="st4" d="M81.7,107.7c-0.2,0.2-0.5,0.3-0.8,0.3c-0.6,0.1-1.1-0.4-1.2-0.9c0-0.1,0-0.2,0-0.2v-2.1h-0.6v-0.6h0.6v-0.8
				h0.7v0.8h1.1v0.6h-1.1v2c0,0.3,0.2,0.6,0.5,0.6c0,0,0.1,0,0.1,0c0.2,0,0.4-0.1,0.5-0.2L81.7,107.7z"/>
			<path class="st4" d="M84.1,104.6c0-0.3,0.2-0.5,0.5-0.5s0.5,0.2,0.5,0.5s-0.2,0.5-0.5,0.5S84.1,104.9,84.1,104.6z M84.1,107.5
				c0-0.3,0.2-0.5,0.5-0.5c0.3,0,0.5,0.2,0.5,0.5c0,0.3-0.2,0.5-0.5,0.5C84.3,108,84.1,107.7,84.1,107.5
				C84.1,107.5,84.1,107.5,84.1,107.5z"/>
			<path class="st4" d="M146.4,73.4c0,0.1-15.9,0.3-35.6,0.3s-35.6-0.1-35.6-0.3s15.9-0.3,35.6-0.3S146.4,73.2,146.4,73.4z"/>
			<path class="st4" d="M178.1,89.6c0,0.1-23,0.3-51.4,0.3s-51.4-0.1-51.4-0.3s23-0.3,51.4-0.3S178.1,89.5,178.1,89.6z"/>
			<path class="st4" d="M140.1,105.7c-0.2,0-0.3,0.1-0.5,0.1h-1.4l-5,0.1c-4.2,0-10,0.1-16.4,0.1s-12.2,0-16.4-0.1l-5-0.1h-1.4
				c-0.2,0-0.3,0-0.5-0.1c0.2,0,0.3,0,0.5,0h1.4l5-0.1c4.2,0,10-0.1,16.4-0.1s12.2,0,16.4,0.1l5,0.1h1.4
				C139.8,105.7,140,105.7,140.1,105.7z"/>
			<path class="st1" d="M315,114.5c0,0.1-59.8,0.3-133.5,0.3S48,114.6,48,114.5s59.8-0.3,133.5-0.3S315,114.3,315,114.5z"/>
			<path class="st1" d="M315,96.9c0,0.1-59.8,0.3-133.5,0.3S47.9,97.1,47.9,96.9s59.8-0.3,133.5-0.3S315,96.8,315,96.9z"/>
			<path class="st1" d="M315,81.5c0,0.2-59.8,0.3-133.5,0.3S48,81.6,48,81.5s59.8-0.3,133.5-0.3S315,81.3,315,81.5z"/>
			<path class="st4" d="M81.1,135.9c-2.8,0.3-5.6,0.3-8.5,0.3c-2.8,0.1-5.7,0-8.5-0.3c2.8-0.3,5.7-0.4,8.5-0.3
				C75.5,135.5,78.3,135.6,81.1,135.9z"/>
			<path class="st4" d="M136.9,148.6c0,0.1-16.3,0.3-36.3,0.3s-36.3-0.1-36.3-0.3s16.3-0.3,36.3-0.3S136.9,148.4,136.9,148.6z"/>
			<path class="st4" d="M48,45.6l269.8-0.2h0.2v0.2c0,55.7,0,117.7,0,183v0.3h-0.3L48,228.8h-0.2v-0.2C47.9,117.2,48,47.3,48,45.6
				c0,1.7,0.1,71.6,0.2,183l-0.2-0.2h269.8l-0.3,0.3l0,0c0-65.3,0-127.3,0-183l0.2,0.2L48,45.6z"/>
		</g>
	</g>
	<g id="freepik--Desk--inject-3">
		<path class="st5" d="M201.3,192.1h131.4c2.4,0,4.3,1.9,4.3,4.3v81.8c0,5.2-4.2,9.4-9.4,9.4l0,0H206.5c-5.2,0-9.4-4.2-9.4-9.4l0,0
			v-81.8C197,194,198.9,192.1,201.3,192.1z"/>
		<path class="st4" d="M327.5,287.6h0.3c0.2,0,0.5,0,0.9-0.1c1.1-0.2,2.3-0.5,3.3-1.1c1.7-0.9,3-2.3,3.9-4c0.5-1.1,0.9-2.2,1-3.4
			c0.1-1.3,0-2.6,0-4.1c0-11.6,0-28.4-0.1-49.2c0-5.2,0-10.6,0-16.3c0-2.8,0-5.7,0-8.7v-4.4c0-1.5-0.9-2.8-2.1-3.5
			c-0.7-0.3-1.4-0.5-2.1-0.5h-16.6h-20.1h-89.3H202c-0.5,0-1,0-1.4,0.1c-1.9,0.3-3.3,2-3.3,3.9c0,3.9,0,7.8,0,11.7v22.8
			c0,14.9,0,29.4,0,43.1c0,1.7,0,3.4,0,5.1c0.3,3.3,2.4,6.2,5.4,7.6c1.5,0.6,3.1,0.9,4.7,0.8h18.9h34l49.2,0.1h13.4h3.5h1.2h-1.2
			h-3.5l-13.4,0l-49.2,0.1h-34h-18.9c-1.7,0.1-3.3-0.2-4.9-0.8c-3.2-1.4-5.4-4.5-5.7-8c-0.1-1.7,0-3.4-0.1-5.1c0-13.7,0-28.1,0-43.1
			c0-7.5,0-15.1,0-22.8c0-3.9,0-7.8,0-11.7c0-2.2,1.6-4,3.7-4.4c0.5-0.1,1-0.1,1.5-0.1h4.4h89.3h36.7c0.8,0,1.6,0.2,2.3,0.5
			c1.4,0.8,2.3,2.3,2.4,3.9v4.5c0,3,0,5.8,0,8.7c0,5.7,0,11.1,0,16.3c0,20.8-0.1,37.6-0.1,49.2c0,1.5,0,2.8,0,4.1
			c-0.1,1.2-0.4,2.4-1,3.5c-0.9,1.7-2.3,3.1-4,4c-1,0.5-2.2,0.9-3.3,1C328.4,287.3,328,287.5,327.5,287.6z"/>
		<path class="st5" d="M279.1,287.6h-24.3c0,0-7.5,12.5,0,20H280C280,307.6,267.6,299.4,279.1,287.6z"/>
		<g class="st8">
			<path d="M254.8,287.6l-1.2,2.5l22.3,1.7c1-1.5,2.1-2.9,3.3-4.2H254.8z"/>
		</g>
		<circle class="st3" cx="270" cy="278.3" r="2.8"/>
		<rect x="203.7" y="197.4" class="st3" width="126.5" height="72.8"/>
		<path class="st4" d="M330.3,270.2c0,0,0-0.5,0-1.3s0-2.1,0-3.8c0-3.4,0-8.3,0-14.6c0-12.6-0.1-30.8-0.1-53.1l0.2,0.2l-126.5,0.1
			l0,0l0.3-0.3c0,25.8,0,50.4,0,72.8l-0.3-0.2l91,0.1l26.1,0.1h7h1.8L330.3,270.2l-0.5-0.1H328h-6.9l-26.1,0.1l-91.2,0.1h-0.2V270
			c0-22.4,0-47.1,0-72.8V197h0.3l126.5,0.1h0.2v0.2c0,22.4-0.1,40.6-0.1,53.2c0,6.3,0,11.2,0,14.5c0,1.6,0,2.9,0,3.8
			C330.3,269.8,330.3,270.2,330.3,270.2z"/>
		<rect x="205.2" y="203.5" class="st5" width="29.8" height="64.9"/>
		<g class="st9">
			<rect x="205.2" y="228.1" width="29.8" height="5.8"/>
		</g>
		<g class="st9">
			<rect x="205.2" y="239.9" width="29.8" height="5.8"/>
		</g>
		<g class="st9">
			<rect x="205.2" y="254.1" width="29.8" height="6.4"/>
		</g>
		<path class="st4" d="M229.8,236.9c-3.2,0.3-6.4,0.3-9.6,0.3c-3.2,0.1-6.4,0-9.6-0.3c3.2-0.3,6.4-0.3,9.6-0.3
			C223.4,236.6,226.6,236.7,229.8,236.9z"/>
		<path class="st4" d="M229.8,230.9c-3.2,0.3-6.4,0.3-9.6,0.3c-3.2,0.1-6.4,0-9.6-0.3c3.2-0.3,6.4-0.3,9.6-0.3
			C223.4,230.5,226.6,230.6,229.8,230.9z"/>
		<path class="st4" d="M234.9,260.5c0,0.1-6.6,0.3-14.8,0.3s-14.8-0.1-14.8-0.3s6.6-0.3,14.8-0.3S234.9,260.4,234.9,260.5z"/>
		<path class="st4" d="M225.2,243.1c-2.4,0.3-4.9,0.3-7.3,0.3c-2.4,0.1-4.9,0-7.3-0.3c2.4-0.3,4.9-0.3,7.3-0.3
			C220.4,242.7,222.8,242.8,225.2,243.1z"/>
		<path class="st4" d="M227.3,256.6c-2.4,0.3-4.9,0.4-7.3,0.3c-2.4,0.1-4.9,0-7.3-0.3c2.4-0.3,4.9-0.3,7.3-0.3
			C222.4,256.3,224.9,256.4,227.3,256.6z"/>
		<path class="st4" d="M229.8,249.8c-3.2,0.3-6.4,0.3-9.6,0.3c-3.2,0.1-6.4,0-9.6-0.3c3.2-0.3,6.4-0.4,9.6-0.3
			C223.4,249.4,226.6,249.5,229.8,249.8z"/>
		<path class="st4" d="M229.8,264.3c-3.2,0.3-6.4,0.4-9.6,0.3c-3.2,0.1-6.4,0-9.6-0.3c3.2-0.3,6.4-0.3,9.6-0.3
			C223.4,264,226.6,264.1,229.8,264.3z"/>
		<path class="st3" d="M219.6,207.9c-3.9,0-7.1,3.2-7.1,7.1c0,2.7,1.5,5.1,3.9,6.3v-2.2c0-1.8,1.5-3.3,3.3-3.3
			c1.8,0,3.3,1.5,3.3,3.3v2c3.4-1.9,4.6-6.2,2.7-9.7C224.6,209.3,222.2,207.9,219.6,207.9L219.6,207.9z M219.8,215.3
			c-1.4,0-2.5-1.1-2.5-2.5s1.1-2.5,2.5-2.5s2.5,1.1,2.5,2.5C222.3,214.2,221.2,215.3,219.8,215.3L219.8,215.3L219.8,215.3z"/>
		<path class="st5" d="M219.8,215.8c-1.8,0-3.3,1.5-3.3,3.3v2.2c2.1,1.1,4.6,1,6.7-0.1v-2C223.1,217.3,221.7,215.8,219.8,215.8
			C219.8,215.8,219.8,215.8,219.8,215.8z"/>
		<path class="st5" d="M219.8,210.3c-1.4,0-2.5,1.1-2.5,2.5s1.1,2.5,2.5,2.5s2.5-1.1,2.5-2.5S221.2,210.3,219.8,210.3z"/>
		<path class="st3" d="M226.8,215c-0.1,0,0-0.6-0.3-1.7c-0.4-1.5-1.3-2.8-2.6-3.8c-0.9-0.6-1.9-1.1-2.9-1.3
			c-1.2-0.2-2.4-0.1-3.6,0.3c-1.3,0.5-2.4,1.3-3.2,2.4c-1.8,2.4-1.8,5.7,0,8.1c0.8,1.1,1.9,1.9,3.2,2.4c1.2,0.4,2.4,0.5,3.6,0.3
			c1.1-0.2,2.1-0.6,2.9-1.3c1.3-0.9,2.2-2.3,2.6-3.8C226.8,215.6,226.7,215,226.8,215c0,0.2,0,0.3,0,0.5c0,0.4-0.1,0.9-0.2,1.3
			c-0.4,1.6-1.3,3-2.6,4c-3.2,2.5-7.8,1.9-10.3-1.3c-2.5-3.2-1.9-7.8,1.3-10.3c2.6-2.1,6.3-2.1,9,0c1.3,1,2.2,2.4,2.6,4
			c0.1,0.4,0.2,0.9,0.2,1.3C226.8,214.7,226.8,214.8,226.8,215z"/>
		<rect x="234.9" y="225.2" class="st2" width="93.3" height="8.7"/>
		<rect x="234.9" y="203.5" class="st0" width="93.3" height="4.4"/>
		<path class="st1" d="M238.2,204.8h63c0.4,0,0.7,0.3,0.7,0.7v0.3c0,0.4-0.3,0.7-0.7,0.7h-63c-0.4,0-0.7-0.3-0.7-0.7v-0.3
			C237.5,205.2,237.8,204.8,238.2,204.8z"/>
		<path class="st1" d="M306,204.8h4.2c0.4,0,0.7,0.3,0.7,0.7v0.3c0,0.4-0.3,0.7-0.7,0.7H306c-0.4,0-0.7-0.3-0.7-0.7v-0.3
			C305.3,205.2,305.6,204.8,306,204.8z"/>
		<rect x="313.9" y="204.7" class="st1" width="0.7" height="0.7"/>
		<rect x="313.9" y="205.6" class="st1" width="0.7" height="0.7"/>
		<rect x="315" y="204.7" class="st1" width="0.7" height="0.7"/>
		<rect x="315" y="205.6" class="st1" width="0.7" height="0.7"/>
		<rect x="234.9" y="207.9" class="st1" width="93.3" height="8.7"/>
		<rect x="237.5" y="210.8" class="st5" width="2.6" height="2.6"/>
		<path class="st4" d="M281,212.1c0,0.1-8.6,0.3-19.1,0.3s-19.1-0.1-19.1-0.3s8.6-0.3,19.1-0.3C272.4,211.8,281,211.9,281,212.1z"/>
		<path class="st4" d="M317,212c-0.7,0.3-1.4,0.3-2.2,0.3c-0.7,0.1-1.5,0-2.1-0.3c0.7-0.3,1.4-0.3,2.1-0.3
			C315.6,211.7,316.3,211.7,317,212z"/>
		<rect x="234.9" y="233.9" class="st3" width="93.3" height="8.7"/>
		<rect x="237.2" y="236.7" class="st5" width="2.7" height="2.6"/>
		<path class="st4" d="M281,238c0,0.1-8.6,0.3-19.3,0.3s-19.3-0.1-19.3-0.3s8.6-0.3,19.3-0.3S281,237.9,281,238z"/>
		<path class="st4" d="M317.4,238c-0.7,0.3-1.4,0.3-2.2,0.3c-0.7,0.1-1.5,0-2.2-0.3c0.7-0.3,1.4-0.3,2.2-0.3
			C315.9,237.7,316.7,237.7,317.4,238z"/>
		<rect x="234.9" y="242.5" class="st1" width="93.3" height="8.7"/>
		<rect x="237.2" y="245.3" class="st5" width="2.7" height="2.6"/>
		<path class="st4" d="M281,246.6c0,0.1-8.6,0.3-19.3,0.3s-19.3-0.1-19.3-0.3s8.6-0.3,19.3-0.3S281,246.5,281,246.6z"/>
		<path class="st4" d="M317.4,246.6c-0.7,0.3-1.4,0.3-2.2,0.3c-0.7,0.1-1.5,0-2.2-0.3c0.7-0.3,1.4-0.3,2.2-0.3
			C315.9,246.2,316.7,246.3,317.4,246.6z"/>
		<rect x="234.9" y="251.1" class="st3" width="93.3" height="8.7"/>
		<rect x="237.2" y="253.9" class="st5" width="2.7" height="2.6"/>
		<path class="st4" d="M281,255.2c0,0.1-8.6,0.3-19.3,0.3s-19.3-0.1-19.3-0.3s8.6-0.3,19.3-0.3S281,255.1,281,255.2z"/>
		<path class="st4" d="M317.4,255.2c-0.7,0.3-1.4,0.3-2.2,0.3c-0.7,0.1-1.5,0-2.2-0.3c0.7-0.3,1.4-0.3,2.2-0.3
			C315.9,254.8,316.7,254.9,317.4,255.2z"/>
		<rect x="234.9" y="259.7" class="st2" width="93.3" height="8.7"/>
		<rect x="237.2" y="262.5" class="st5" width="2.7" height="2.6"/>
		<path class="st4" d="M281,263.8c0,0.1-8.6,0.3-19.3,0.3s-19.3-0.1-19.3-0.3s8.6-0.3,19.3-0.3S281,263.7,281,263.8z"/>
		<path class="st4" d="M317.4,263.8c-0.7,0.3-1.4,0.3-2.2,0.3c-0.7,0.1-1.5,0-2.2-0.3c0.7-0.3,1.4-0.3,2.2-0.3
			C315.9,263.4,316.7,263.5,317.4,263.8z"/>
		<rect x="234.9" y="216.5" class="st3" width="93.3" height="8.7"/>
		<rect x="237.5" y="219.4" class="st5" width="2.6" height="2.6"/>
		<path class="st4" d="M264.6,220.7c0,0.1-4.9,0.3-10.9,0.3s-10.9-0.1-10.9-0.3s4.9-0.3,10.9-0.3S264.6,220.5,264.6,220.7z"/>
		<path class="st4" d="M317,220.9c-0.7,0.3-1.4,0.3-2.2,0.3c-0.7,0.1-1.5,0-2.1-0.3c0.7-0.3,1.4-0.3,2.1-0.3
			C315.6,220.6,316.3,220.7,317,220.9z"/>
		<path class="st4" d="M317,229.4c-0.7,0.3-1.4,0.3-2.2,0.3c-0.7,0.1-1.5,0-2.1-0.3c0.7-0.3,1.4-0.3,2.1-0.3
			C315.6,229.1,316.3,229.1,317,229.4z"/>
		<rect x="237.5" y="228.1" class="st5" width="2.6" height="2.6"/>
		<path class="st4" d="M295.4,229.4c0,0.1-11.8,0.3-26.4,0.3s-26.4-0.1-26.4-0.3s11.8-0.3,26.4-0.3S295.4,229.2,295.4,229.4z"/>
		<path class="st4" d="M209.3,201.4c0,0.4-0.4,0.8-0.8,0.8c-0.4,0-0.8-0.3-0.8-0.8c0,0,0,0,0,0c0-0.4,0.4-0.8,0.8-0.8l0,0
			C209,200.6,209.3,200.9,209.3,201.4C209.3,201.4,209.3,201.4,209.3,201.4z"/>
		<path class="st4" d="M212.4,201.4c0,0.4-0.4,0.8-0.8,0.8s-0.8-0.4-0.8-0.8s0.4-0.8,0.8-0.8S212.4,200.9,212.4,201.4L212.4,201.4z"
			/>
		<path class="st4" d="M215.5,201.4c0,0.4-0.4,0.8-0.8,0.8c0,0,0,0,0,0c-0.4,0-0.8-0.4-0.8-0.8c0-0.4,0.3-0.8,0.8-0.8c0,0,0,0,0,0
			C215.2,200.6,215.5,200.9,215.5,201.4L215.5,201.4z"/>
		<path class="st4" d="M328.2,268.4c0-1.6,0-26.8-0.1-69.3l0.1,0.1h-123l0,0l0.2-0.1c0,24.5,0,47.9,0,69.3l-0.1-0.1L328.2,268.4
			l-123,0.1H205v-0.1c0-21.3,0-44.8,0-69.3V199h0.2h123h0.1v0.1C328.2,241.6,328.2,266.8,328.2,268.4z"/>
		<polygon class="st10" points="388.3,466.9 380.8,466.9 364,316.2 373.9,316.2 		"/>
		<polygon class="st10" points="340.8,466.9 333.3,466.9 316.4,316.2 326.2,316.2 		"/>
		<polygon class="st10" points="390.6,316.2 186.5,316.2 125.6,316.2 125.6,307.5 390.6,307.5 		"/>
		<polygon class="st4" points="180.6,466.9 188.1,466.9 204.2,316.2 194.4,316.2 		"/>
		<polygon class="st4" points="116.1,466.9 123.6,466.9 140.5,316.2 130.6,316.2 		"/>
		<rect x="125.6" y="307.5" class="st4" width="81.7" height="8.7"/>
		<rect x="244.6" y="304.9" class="st4" width="56.4" height="2.6"/>
	</g>
	<g id="freepik--Character--inject-3">
		<path class="st5" d="M365.1,432.6l5.3,29.3l-36.4,6.8c-0.4-3.5,17.1-14,17.1-14l-4.2-18.6L365.1,432.6z"/>
		<g class="st11">
			<path class="st7" d="M362,451c0.8,0.1,1.3,0.7,1.4,1.5c-0.1,0.8-0.7,1.4-1.5,1.4c-0.8-0.1-1.4-0.8-1.4-1.6
				c0.1-0.8,0.9-1.4,1.7-1.2"/>
		</g>
		<g class="st11">
			<path class="st7" d="M370.4,461.9l-0.6-2.9l-34.7,7.6c0,0-1.5,1-1.1,2.1L370.4,461.9z"/>
		</g>
		<path class="st4" d="M350.5,454.6c0,0.2,0.9,0.1,1.9,0.5s1.6,1.1,1.7,1s-0.3-1.1-1.5-1.5S350.4,454.5,350.5,454.6z"/>
		<path class="st4" d="M346.9,456.9c0,0.2,0.8,0.3,1.6,1s1.1,1.4,1.2,1.4s0.1-1.1-0.8-1.8S346.9,456.7,346.9,456.9z"/>
		<path class="st4" d="M345.6,461.9c0.2,0,0.3-0.9-0.4-1.8s-1.5-1.1-1.6-1s0.6,0.6,1.1,1.3S345.4,461.9,345.6,461.9z"/>
		<path class="st4" d="M350,450.3c0.1,0.1,0.9-0.3,1.9-0.4s1.9,0,1.9-0.1s-0.8-0.7-2-0.5S349.9,450.1,350,450.3z"/>
		<path class="st4" d="M350,445.8c0.6,0.1,1.3-0.1,1.8-0.4c0.6-0.2,1.2-0.6,1.8-0.9c0.3-0.2,0.6-0.5,0.9-0.8
			c0.2-0.2,0.3-0.3,0.5-0.5c0.2-0.3,0.2-0.7-0.1-1c-0.2-0.2-0.5-0.3-0.9-0.3c-0.2,0-0.5,0.1-0.7,0.2c-0.4,0.2-0.7,0.4-1.1,0.6
			c-0.6,0.4-1.1,0.9-1.5,1.4C350.2,445.1,350,445.8,350,445.8c0.2,0.1,0.5-0.5,1.2-1.3c0.4-0.5,0.9-0.9,1.5-1.2
			c0.3-0.2,0.7-0.4,1-0.5c0.4-0.2,0.7-0.2,0.8-0.1s0,0.1,0,0.2c-0.1,0.1-0.2,0.3-0.3,0.4c-0.3,0.3-0.6,0.5-0.9,0.7
			c-0.5,0.4-1.1,0.7-1.6,1C351.1,445.2,350.5,445.5,350,445.8z"/>
		<path class="st4" d="M350.3,446c0.2-0.6,0.3-1.2,0.1-1.9c-0.1-0.7-0.3-1.3-0.6-2c-0.2-0.4-0.4-0.7-0.7-1c-0.3-0.5-0.8-0.7-1.3-0.7
			c-0.3,0.1-0.6,0.3-0.7,0.6c-0.1,0.2-0.1,0.5-0.1,0.7c0,0.4,0.1,0.8,0.2,1.2c0.2,0.7,0.6,1.3,1.1,1.7c0.9,0.8,1.7,0.9,1.7,0.8
			s-0.6-0.3-1.4-1.1c-0.4-0.5-0.7-1-0.9-1.6c-0.1-0.3-0.2-0.7-0.2-1.1c0-0.4,0.1-0.7,0.2-0.7s0.5,0.2,0.8,0.5
			c0.2,0.3,0.5,0.6,0.6,0.9c0.3,0.5,0.5,1.1,0.7,1.8C350.3,445.3,350.2,446,350.3,446z"/>
		<path class="st5" d="M322.6,437.3l5.7,29.2l-36.3,7.3c-0.5-3.5,16.9-14.3,16.9-14.3l-4.4-18.6L322.6,437.3z"/>
		<g class="st11">
			<path class="st7" d="M319.8,455.8c0.8,0.1,1.4,0.7,1.4,1.5c0,0.8-0.7,1.4-1.5,1.4c-0.8-0.1-1.5-0.8-1.4-1.6
				c0.1-0.8,0.9-1.4,1.7-1.3"/>
		</g>
		<g class="st11">
			<path class="st7" d="M328.3,466.5l-0.7-2.9l-34.6,8.1c0,0-1.5,1-1.1,2.1L328.3,466.5z"/>
		</g>
		<path class="st4" d="M308.3,459.5c0,0.2,0.9,0.1,1.9,0.5s1.6,1,1.8,0.9s-0.3-1.1-1.5-1.5S308.2,459.4,308.3,459.5z"/>
		<path class="st4" d="M304.8,461.9c0,0.2,0.8,0.3,1.6,1s1.1,1.4,1.3,1.4s0.1-1.1-0.9-1.8S304.8,461.7,304.8,461.9z"/>
		<path class="st4" d="M303.5,466.9c0.2,0,0.2-0.9-0.4-1.8s-1.6-1.1-1.6-0.9s0.6,0.6,1.1,1.3S303.4,466.9,303.5,466.9z"/>
		<path class="st4" d="M307.8,455.2c0.1,0.1,0.9-0.3,1.9-0.4s1.9,0,1.9-0.1s-0.8-0.6-2-0.5S307.6,455.1,307.8,455.2z"/>
		<path class="st4" d="M307.7,450.7c0.6,0.1,1.3-0.1,1.8-0.4c0.6-0.3,1.2-0.6,1.8-1c0.3-0.2,0.6-0.5,0.9-0.8
			c0.2-0.2,0.3-0.3,0.5-0.5c0.2-0.3,0.2-0.7-0.1-1c-0.2-0.2-0.5-0.3-0.9-0.3c-0.2,0-0.5,0.1-0.7,0.2c-0.4,0.2-0.7,0.4-1,0.6
			c-0.6,0.4-1,0.9-1.5,1.4C307.9,450,307.8,450.7,307.7,450.7c0.2,0.1,0.5-0.5,1.2-1.4c0.4-0.5,0.9-0.9,1.4-1.2
			c0.3-0.2,0.7-0.4,1-0.5c0.4-0.2,0.7-0.3,0.8-0.1s0.1,0.1,0,0.2c-0.1,0.1-0.2,0.3-0.3,0.4c-0.3,0.3-0.5,0.5-0.9,0.7
			c-0.5,0.4-1,0.7-1.6,1C308.8,450.1,308.3,450.4,307.7,450.7z"/>
		<path class="st4" d="M308,450.9c0.2-0.6,0.3-1.2,0.1-1.9c-0.1-0.7-0.3-1.3-0.6-2c-0.2-0.4-0.4-0.7-0.7-1c-0.3-0.4-0.8-0.7-1.4-0.7
			c-0.3,0.1-0.6,0.3-0.7,0.7c0,0.2-0.1,0.5,0,0.7c0,0.4,0.1,0.8,0.3,1.2c0.2,0.7,0.6,1.3,1.1,1.7c0.9,0.8,1.7,0.9,1.7,0.8
			s-0.6-0.3-1.4-1.1c-0.4-0.5-0.7-1-0.9-1.6c-0.1-0.3-0.2-0.7-0.2-1.1c0-0.4,0.1-0.7,0.2-0.7s0.5,0.2,0.8,0.5
			c0.2,0.3,0.5,0.6,0.6,0.9c0.3,0.5,0.6,1.1,0.7,1.7C308,450.2,307.9,450.9,308,450.9z"/>
		<path class="st4" d="M343.8,443.2l-14.1-78.7c-0.7-3.9-0.3-7.9,1-11.6l0,0c3.2-8.9,11.6-14.9,21.1-14.9h49.8l32.6,14.4l0,0
			c0,11.1-9,20.2-20.2,20.2c-0.5,0-1.1,0-1.6-0.1l-53.2-4.2l7.7,71.3L343.8,443.2z"/>
		<path class="st4" d="M302.6,447.3l-16.1-82.8c-0.7-3.9-0.3-7.9,1-11.6l0,0c3.2-8.9,11.6-14.9,21.1-14.9h49.8l32.6,14.5v21.8
			l-75-5.9l9.8,73.6L302.6,447.3z"/>
		<path class="st10" d="M325.9,442c0,0-0.1-0.3-0.2-0.9s-0.2-1.5-0.4-2.5c-0.3-2.3-0.8-5.4-1.3-9.4c-1.1-8-2.6-18.9-4.2-30.9
			c-1.5-11.6-2.9-22.1-3.9-29.9l0.1,0.1c-3.6-2.5-6.3-4.7-8.2-6.1l-2.2-1.7c-0.3-0.2-0.5-0.4-0.8-0.6l0.2,0.1l0.6,0.4
			c0.5,0.4,1.3,0.9,2.3,1.6c2,1.4,4.8,3.5,8.3,5.9l0.1,0v0.1c1,7.8,2.5,18.3,4,29.9c1.6,12,3,23,4,30.9c0.5,3.9,0.9,7.1,1.2,9.4
			c0.1,1.1,0.2,1.9,0.3,2.5C325.8,441.4,325.9,441.7,325.9,442z"/>
		<path class="st12" d="M278.7,305.1l3.5-6.6c0.4-0.6,1.1-1,1.9-0.9l1.6,0.1l2.7-2.5h3.1l2.4-1.6l9.3,1.8l7.7,2.1l-4.4,8.6l-4.4-0.9
			l-7.4-0.1c-2.1,0-4.2-0.9-5.7-2.4l0,0c-1.3-1.3-3.1-2-4.9-2l0,0C284.2,300.6,281.9,305.8,278.7,305.1z"/>
		<path class="st12" d="M385,205.4l0.1,47.9l-20.5,1l-0.6-11.7c0,0-7.3,1.4-9.2-5.3c-1.2-4.3-0.9-37.8-0.9-37.8L385,205.4z"/>
		<path class="st4" d="M385.3,242.9c2.2-2.3,3.2-5.4,3.7-8.5s0.6-6.3,1.3-9.4c0.7-3.2,2.1-6.3,2.8-9.5s0.6-6.9-1.3-9.6
			c0,0-1.3-3.7-6.7-4c0,0-4.6-7.5-11.4-6.8c-9.3,0.9-9.5-1.8-15.9-2.8c-3.1-0.8-6.3,1.2-7.1,4.3c0,0,0,0,0,0.1c0,0-3.3,2.4-3.4,5.9
			v0.1c-0.1,3.6,2.1,6.8,5.5,7.9l1.2,0.4c1.2,0.3,2.3,0.8,3.3,1.6c1.3,1.3,1.5,3.3,1.4,5.1s-0.3,3.7,0.3,5.4
			c0.2,0.6,0.7,1.2,1.3,1.1s0.7-1.2,0.8-1.9c0.2-2.1,3-3.8,4.9-2.2c1.2,0.9,1.7,2.6,1,4c-0.7,1.5-2.3,2.7-2.6,4.4
			c-0.5,2.8,2.8,5.3,4,6.8c0.4,0.6,0.9,1.1,1.4,1.5c2.7,2.3,5.4,5.5,9,6.7c2.4,0.8,5.3,0.6,7.1-1.1"/>
		<path class="st5" d="M361,251.9c-4.5,3.2-2.7,11.9-2.7,16.5c-0.1,10.2,0.8,19.7,1.4,21.3c0.8,2.3,3.6,22.2,3.6,22.2l-4.8,26.1
			c0,0,6.1,15.6,32.6,15.5l13.2-3.1c6.6-1.6,11-7.7,10.5-14.5l-3-35.1l-4-28.5c-1-15-10.4-22.9-22.4-22.1L361,251.9z"/>
		<g class="st13">
			<path d="M371.8,350.1c-2.9-1.5,1-30.7,4.4-45.7c1.3-5.8,3.1-11.9,7.2-16.2c3.4-3.3,7.7-5.5,12.4-6.4c4.3-0.9,8.7-1.3,13-1.3
				l4.1,66.5C412.9,347,384.3,356.5,371.8,350.1z"/>
		</g>
		<path class="st5" d="M361,251.9c-5.6,1.1-10.4,4.8-12.9,10c-3.3,6.9-17.9,35.7-17.9,35.7l-22.3-1.5l-4.5,10.2l30.5,8.2l0,0
			c6.3,1.2,11.8-2.6,14.9-8.3l12.8-23.4L361,251.9z"/>
		<path class="st5" d="M363.2,251.9c0,0-0.6-5.1,0.2-6s22.8-0.7,22.8-0.7l1.2,5.8l-2.5,4.4l-21,1.8L363.2,251.9z"/>
		<path class="st4" d="M332.8,302.6c-1.4-1.2-2.2-2.9-2.3-4.7C331.3,299.5,332.1,301,332.8,302.6z"/>
		<path class="st4" d="M364.8,274.8c-0.9,2.7-2,5.3-3.3,7.9c-1.1,2.6-2.4,5.2-3.8,7.7c0.9-2.7,2-5.3,3.3-7.9
			C362.1,279.8,363.3,277.2,364.8,274.8z"/>
		<path class="st4" d="M387.2,250.1c0,0,0.1,0.2,0.1,0.7c0,0.7-0.5,1.4-1.2,1.6l0,0c-2.3,0.1-6,0.3-10.2,0.5
			c-3.6,0.1-6.8,0.2-9.1,0.3c-0.9,0-1.9-0.2-2.7-0.6c-0.6-0.3-0.8-0.6-0.8-0.6s0.3,0.2,0.9,0.4c0.9,0.3,1.8,0.5,2.7,0.4
			c2.3-0.1,5.5-0.3,9.1-0.4c4.2-0.1,7.9-0.2,10.3-0.3l0,0c0.6-0.2,1-0.7,1.1-1.3C387.2,250.4,387.1,250.1,387.2,250.1z"/>
		<path class="st4" d="M350.4,258.3c0.1,0.1-4.3,8.8-9.8,19.5s-10.1,19.3-10.2,19.2s4.3-8.8,9.8-19.5S350.3,258.3,350.4,258.3z"/>
		<path class="st3" d="M358.8,264.7c0,0,0.2-0.1,0.5,0.1c0.5,0.2,0.8,0.6,1,1.1c0.2,0.8-0.1,1.5-0.7,2c-0.4,0.3-0.8,0.4-1.3,0.4
			c-0.4,0-0.9-0.1-1.3-0.1c-0.7-0.1-1.5,0.2-2,0.7c-0.4,0.4-0.7,1-0.7,1.7c0.1,0.6,0.2,1.2,0.5,1.7c0,0.1-0.8-0.4-0.9-1.7
			c-0.1-0.7,0.2-1.5,0.7-2c0.6-0.7,1.5-1,2.4-0.9c0.9,0.1,1.7,0.3,2.3-0.1c0.5-0.3,0.7-0.9,0.6-1.5c-0.1-0.4-0.3-0.8-0.7-1
			C358.9,264.8,358.8,264.8,358.8,264.7z"/>
		<path class="st3" d="M388.3,265.1c0,0,0.2,0,0.5,0.1c0.5,0.2,0.8,0.6,1,1.1c0.2,0.7-0.1,1.5-0.7,2c-0.4,0.2-0.8,0.4-1.3,0.4
			c-0.5,0-0.9-0.1-1.3-0.1c-0.7-0.1-1.5,0.2-2,0.8c-0.4,0.4-0.7,1-0.7,1.7c0,0.6,0.2,1.2,0.5,1.7c0,0-0.8-0.4-0.9-1.7
			c-0.1-0.7,0.2-1.5,0.7-2c0.6-0.7,1.5-1,2.4-0.9c0.9,0.1,1.7,0.3,2.3-0.1c0.5-0.3,0.7-0.9,0.6-1.5c-0.1-0.4-0.4-0.8-0.7-1
			C388.5,265.1,388.3,265.1,388.3,265.1z"/>
		<path class="st3" d="M387.9,286.4c0,0,0,0.2-0.2,0.5c-0.3,0.4-0.8,0.6-1.3,0.7c-0.8,0-1.5-0.4-1.8-1.2c-0.1-0.4-0.1-0.9,0-1.3
			c0.1-0.4,0.3-0.8,0.4-1.2c0.3-0.7,0.2-1.5-0.2-2.2c-0.3-0.5-0.9-0.9-1.5-1c-0.6-0.1-1.2-0.1-1.8,0.1c0.5-0.5,1.2-0.6,1.8-0.5
			c0.7,0.1,1.4,0.5,1.8,1.1c0.5,0.8,0.6,1.7,0.3,2.6c-0.3,0.9-0.7,1.6-0.4,2.2c0.2,0.6,0.7,1,1.3,1c0.4,0,0.8-0.2,1.1-0.4
			C387.8,286.6,387.9,286.4,387.9,286.4z"/>
		<path class="st3" d="M375,316.7c0,0,0,0.2-0.2,0.5c-0.3,0.4-0.8,0.6-1.3,0.7c-0.8,0-1.5-0.4-1.8-1.2c-0.1-0.4-0.1-0.9,0-1.3
			c0.1-0.4,0.3-0.8,0.4-1.2c0.3-0.7,0.2-1.5-0.2-2.1c-0.3-0.5-0.9-0.9-1.5-1c-0.6-0.1-1.2-0.1-1.8,0.1c-0.1,0,0.6-0.6,1.8-0.5
			c0.7,0.1,1.4,0.5,1.8,1.1c0.5,0.8,0.6,1.7,0.3,2.6c-0.3,0.9-0.7,1.6-0.4,2.2c0.2,0.6,0.7,1,1.3,1c0.4,0,0.8-0.2,1.1-0.4
			C374.9,316.8,374.9,316.7,375,316.7z"/>
		<path class="st3" d="M401.5,272.4c0,0,0.2,0,0.5,0.1c0.5,0.2,0.8,0.6,1,1.1c0.2,0.7-0.1,1.5-0.7,2c-0.4,0.2-0.8,0.4-1.3,0.4
			c-0.5,0-0.9-0.1-1.3-0.1c-0.7-0.1-1.5,0.2-2,0.7c-0.4,0.4-0.7,1.1-0.7,1.7c0,0.6,0.2,1.2,0.5,1.7c0,0.1-0.8-0.4-0.9-1.7
			c-0.1-0.7,0.2-1.5,0.7-2c0.6-0.7,1.5-1,2.4-0.9c0.9,0.1,1.7,0.3,2.2-0.1c0.5-0.3,0.8-0.9,0.6-1.5c-0.1-0.4-0.4-0.8-0.7-1
			C401.7,272.5,401.5,272.4,401.5,272.4z"/>
		<path class="st3" d="M370.7,299.2c0,0-0.1-0.1-0.2-0.5c-0.1-0.5,0.1-1,0.4-1.4c0.5-0.6,1.4-0.8,2.1-0.4c0.4,0.2,0.8,0.5,1,0.9
			c0.2,0.4,0.4,0.8,0.6,1.2c0.3,0.7,1,1.2,1.7,1.4c0.6,0.1,1.2,0,1.7-0.4c0.5-0.3,0.9-0.8,1.2-1.3c0,0,0,0.9-1,1.6
			c-0.6,0.4-1.3,0.6-2.1,0.5c-0.9-0.2-1.7-0.8-2.1-1.6c-0.4-0.8-0.6-1.6-1.3-1.9c-0.5-0.3-1.2-0.2-1.6,0.3c-0.3,0.3-0.5,0.7-0.5,1.1
			C370.7,299,370.7,299.2,370.7,299.2z"/>
		<path class="st3" d="M372.1,279.2c0,0,0.2-0.1,0.5,0.1c0.5,0.2,0.8,0.6,1,1.1c0.2,0.7-0.1,1.5-0.7,2c-0.4,0.3-0.8,0.4-1.3,0.4
			c-0.4,0-0.9-0.1-1.3-0.1c-0.7-0.1-1.5,0.2-2,0.8c-0.4,0.4-0.7,1-0.7,1.7c0.1,0.6,0.2,1.2,0.5,1.7c0,0-0.8-0.4-0.9-1.7
			c-0.1-0.7,0.2-1.5,0.7-2c0.6-0.7,1.5-1,2.4-0.9c0.9,0.1,1.7,0.3,2.3-0.1c0.5-0.3,0.8-0.9,0.6-1.5c-0.1-0.4-0.3-0.8-0.7-1
			C372.3,279.2,372.1,279.2,372.1,279.2z"/>
		<path class="st3" d="M371.5,326.6c0,0,0.2,0,0.5,0.1c0.5,0.2,0.8,0.6,1,1.1c0.2,0.7-0.1,1.5-0.7,2c-0.4,0.2-0.8,0.4-1.3,0.4
			c-0.4,0-0.9-0.1-1.3-0.1c-0.7-0.1-1.5,0.2-2,0.8c-0.4,0.4-0.7,1-0.7,1.7c0.1,0.6,0.2,1.2,0.5,1.7c0,0.1-0.7-0.4-0.9-1.7
			c-0.1-0.7,0.2-1.5,0.7-2c0.6-0.7,1.5-1,2.4-0.9c0.9,0.1,1.7,0.3,2.3-0.1c0.5-0.3,0.7-0.9,0.6-1.5c-0.1-0.4-0.3-0.8-0.7-1
			C371.7,326.7,371.5,326.7,371.5,326.6z"/>
		<path class="st3" d="M343.2,301.3c0,0,0.2-0.1,0.5,0.1c0.5,0.2,0.8,0.6,1,1.1c0.2,0.7-0.1,1.6-0.7,2c-0.4,0.3-0.8,0.4-1.3,0.4
			c-0.5,0-0.9-0.1-1.3-0.1c-0.7-0.1-1.5,0.2-2,0.7c-0.4,0.4-0.7,1.1-0.7,1.7c0,0.6,0.2,1.2,0.5,1.7c0,0.1-0.8-0.4-0.9-1.7
			c-0.1-0.7,0.2-1.5,0.7-2c0.6-0.7,1.5-1,2.4-0.9c0.9,0.1,1.7,0.3,2.3-0.1c0.5-0.3,0.7-0.9,0.6-1.5c-0.1-0.4-0.3-0.8-0.7-1
			C343.4,301.4,343.2,301.4,343.2,301.3z"/>
		<path class="st3" d="M350.8,287.5c0,0,0,0.2-0.1,0.5c-0.2,0.4-0.7,0.7-1.2,0.9c-0.8,0.1-1.5-0.2-1.9-0.9c-0.2-0.4-0.3-0.9-0.2-1.3
			c0-0.5,0.2-0.9,0.2-1.3c0.1-0.7-0.1-1.5-0.6-2.1c-0.4-0.5-1-0.8-1.6-0.8c-0.6,0-1.2,0.1-1.7,0.4c-0.1,0,0.5-0.7,1.7-0.7
			c0.8,0,1.5,0.3,2,0.9c0.6,0.7,0.9,1.6,0.7,2.5c-0.2,0.9-0.4,1.7-0.1,2.3c0.3,0.5,0.9,0.8,1.5,0.8c0.4-0.1,0.8-0.3,1-0.6
			C350.7,287.7,350.8,287.5,350.8,287.5z"/>
		<path class="st3" d="M372.4,262.2c0,0,0,0.2-0.1,0.5c-0.2,0.4-0.7,0.8-1.2,0.9c-0.8,0.1-1.6-0.2-2-0.9c-0.2-0.4-0.3-0.9-0.2-1.3
			c0-0.4,0.2-0.9,0.2-1.3c0.2-0.7-0.1-1.5-0.5-2.1c-0.4-0.5-1-0.8-1.6-0.8c-0.6,0-1.2,0.1-1.7,0.4c0.4-0.5,1.1-0.8,1.7-0.7
			c0.7,0,1.4,0.3,2,0.9c0.6,0.7,0.9,1.6,0.7,2.5c-0.2,0.9-0.4,1.7-0.1,2.2c0.3,0.5,0.9,0.8,1.5,0.8c0.4-0.1,0.8-0.3,1.1-0.6
			C372.3,262.4,372.4,262.2,372.4,262.2z"/>
		<path class="st3" d="M401.4,260.5c0,0,0,0.2-0.1,0.5c-0.2,0.4-0.7,0.7-1.2,0.9c-0.8,0.1-1.5-0.2-1.9-0.9c-0.2-0.4-0.3-0.9-0.2-1.3
			c0-0.5,0.2-0.9,0.2-1.3c0.1-0.7-0.1-1.5-0.6-2.1c-0.4-0.5-1-0.8-1.6-0.8c-0.6,0-1.2,0.1-1.7,0.4c-0.1,0,0.5-0.7,1.7-0.7
			c0.7,0,1.4,0.3,2,0.8c0.6,0.7,0.9,1.6,0.7,2.5c-0.2,0.9-0.4,1.7-0.1,2.3c0.3,0.5,0.9,0.8,1.5,0.8c0.4-0.1,0.8-0.3,1-0.6
			C401.3,260.7,401.3,260.5,401.4,260.5z"/>
		<path class="st3" d="M325.1,305c0,0,0,0.2-0.1,0.5c-0.2,0.4-0.7,0.7-1.1,0.9c-0.8,0.1-1.6-0.2-2-0.9c-0.2-0.4-0.3-0.9-0.2-1.3
			c0-0.5,0.2-0.9,0.2-1.3c0.2-0.7-0.1-1.5-0.6-2.1c-0.4-0.5-1-0.8-1.6-0.8c-0.6,0-1.2,0.1-1.7,0.4c-0.1,0,0.5-0.7,1.7-0.7
			c0.7,0,1.4,0.3,2,0.9c0.6,0.7,0.9,1.6,0.7,2.5c-0.2,0.9-0.4,1.7-0.1,2.3c0.3,0.5,0.9,0.8,1.5,0.8c0.4-0.1,0.8-0.3,1.1-0.6
			C325,305.1,325.1,304.9,325.1,305z"/>
		<path class="st1" d="M371.6,378.9l-0.8,87.9h5l0.4-86.2c0,0,0.3-3.9,3.3-4.2s48,2,48,2l13.3,88.4h5.8l-13-88.4
			c0,0-37.8-12.8-56.6-8.8c0,0-4.5-0.8-4.8,2.6S371.6,378.9,371.6,378.9z"/>
		<path class="st10" d="M372.5,368.8c0,0,7.8-61,10.6-71.3c1.3-4.7,4.5-8.6,8.7-11.1c2.4-1.4,5.1-2.2,7.9-2.1l41.5,0.9
			c3.5,0.1,6.2,2.9,6.1,6.4c0,0.3,0,0.6-0.1,0.9l-13.8,86.1c-15.3,0-51,0-51,0s-48.9-5.3-56.4-5.7c-4.7-0.2-5,1.6-5.4,3.6l0,0
			c-4.4-3.6-1.8-10.9,3.9-10.5L372.5,368.8z"/>
		<path class="st4" d="M447,289.3c-0.1,0-0.2,0-0.4,0h-1l-4,0l-14.8,0.1h-10.2h-8.7c-1,0-2,0-3,0.1c-4.3,0.4-8,3.3-9.4,7.4
			c-0.3,1.1-0.6,2.2-0.7,3.3c-0.2,1.1-0.4,2.3-0.6,3.4c-0.4,2.3-0.8,4.6-1.1,7c-3.1,18.8-5.9,35.8-8,48.1c-1,6.1-1.9,11.1-2.5,14.6
			c-0.3,1.7-0.5,3-0.7,4c-0.1,0.4-0.1,0.8-0.2,1c0,0.1,0,0.2-0.1,0.3c0-0.1,0-0.2,0-0.4c0-0.3,0.1-0.6,0.1-1c0.1-0.9,0.4-2.3,0.6-4
			c0.5-3.5,1.3-8.5,2.3-14.6c2-12.4,4.8-29.4,7.8-48.2c0.4-2.3,0.8-4.7,1.1-7c0.2-1.1,0.4-2.3,0.6-3.4c0.1-1.1,0.4-2.3,0.7-3.4
			c1.5-4.3,5.3-7.3,9.9-7.8c1.1-0.1,2.1,0,3.1,0h8.7h10.2l14.8,0.1l4,0h1L447,289.3z"/>
		<path class="st2" d="M320.6,378.9l-2.3,87.9h5l1.3-86.1c0,0,0.1-5.1,4-4.7c3,0.3,48.4,5.6,48.4,5.6l15.3,85.1h5.8l-15.6-88.4
			l-55.7-7c-1.2-0.2-2.3,0-3.4,0.5c-1.7,0.8-2.7,2.5-2.8,4.4C320.4,379.8,320.6,378.9,320.6,378.9z"/>
		<path class="st5" d="M434.2,285c0,0-28,91.2-61.8,83.8l0.6-4.3c0,0,26.1,4.3,56.7-79.5L434.2,285z"/>
		<path class="st5" d="M374.9,367.7c0.1,9.5,2,18.9,5.5,27.7c1,2.6,2.3,5.3,4.8,6.5s5.4,0.6,8-0.1c6.5-1.8,12.9-4.1,19.1-7
			c2.3-1,4.6-2.3,5.8-4.5c1.4-2.6,0.6-5.8-0.1-8.7c-2.5-9.2-5.3-18.3-8.5-27.3c-0.6-1.9-3.7-9.1-3.7-9.1"/>
		<path class="st4" d="M409.1,356c0,0.2,0,0.3,0,0.5c0,0.3,0,0.8-0.1,1.4c-0.2,1.7-0.5,3.4-1,5c-0.7,2.5-1.7,4.8-3.1,7
			c-1.7,2.7-3.9,4.9-6.6,6.6c-2.6,1.7-5.7,2.8-8.8,3.1c-2.6,0.2-5.1-0.2-7.5-1.1c-1.6-0.6-3.1-1.5-4.4-2.6c-0.4-0.3-0.7-0.6-1-1
			c-0.1-0.1-0.2-0.2-0.3-0.4c0,0,0.5,0.5,1.4,1.2c1.3,1,2.8,1.9,4.4,2.5c2.4,0.9,4.9,1.2,7.4,1c3.1-0.3,6-1.3,8.6-3
			c2.6-1.7,4.8-3.9,6.4-6.5c1.4-2.1,2.4-4.4,3.2-6.8c0.5-1.6,0.9-3.3,1.1-5C409,356.6,409,356,409.1,356z"/>
		<path class="st4" d="M395.8,381.3c-0.2-1.4-0.2-2.9,0-4.4c0-1.5,0.2-2.9,0.5-4.3c0.2,1.4,0.2,2.9,0,4.4
			C396.3,378.4,396.2,379.9,395.8,381.3z"/>
	</g>
	<g id="freepik--Plant--inject-3">
		<path class="st5" d="M93.1,401c7.3,2.5,16.8,0.3,23-4.3s10.7-11.1,14.7-17.7c1.7-2.8,3.4-5.8,3.9-9s-0.3-6.9-2.8-9
			c-3.9-3.3-9.9-1.6-14.4,0.9C103.4,370.2,94.3,384.8,93.1,401"/>
		<path class="st5" d="M100.9,418.4c4.4,5.8,11.9,8.3,19.1,8.7s14.4-1.7,21.1-4.3c2.4-0.9,5.1-2.2,6-4.7c0.5-2,0.1-4-1.3-5.6
			c-1.3-1.5-3-2.6-4.9-3.3c-6.8-2.7-14.3-3.1-21.3-1.1C112.7,409.9,106.6,414,100.9,418.4"/>
		<path class="st5" d="M92.9,369.8c6,0.1,10.6-5.2,13.3-10.5c3.8-7.5,5.1-16.1,3.6-24.4c-0.6-3.1-1.7-6.4-4.5-7.9s-6.4-0.5-8.8,1.6
			s-3.6,5.2-4.6,8.2C88.8,347.4,89.5,359.4,92.9,369.8"/>
		<path class="st5" d="M73.1,403.1c10.3-17.5,12-38.9,5.9-58.3c-1-3.1-2.8-6.7-6.1-7c-3.6-0.2-5.9,3.8-6.9,7.3
			c-3.5,12.3-2.8,25.4-2,38.1C64.5,391.2,67.2,398,73.1,403.1"/>
		<path class="st5" d="M62.5,410.3c-3.9-12.1-13-21.9-24.9-26.5c-2.7-1-6.2-1.6-8.2,0.5s-1.4,5.5-0.1,8c2.1,4.1,5.4,7.5,8.8,10.6
			c3,2.9,6.2,5.8,10.1,7.5S58.9,412.6,62.5,410.3"/>
		<path class="st4" d="M126.2,365.4l-0.2,0.2l-0.6,0.4l-2.2,1.6l-1.6,1.1c-0.6,0.4-1.2,0.9-1.8,1.5c-1.3,1.1-2.8,2.2-4.3,3.6
			l-2.4,2.2c-0.8,0.8-1.6,1.6-2.5,2.5c-1.8,1.7-3.5,3.7-5.3,5.7c-3.9,4.6-7.4,9.4-10.6,14.4c-3.1,5.1-5.8,10.4-8.2,16
			c-1,2.6-2,5-2.8,7.3c-0.4,1.2-0.8,2.3-1.1,3.4l-0.9,3.1c-0.6,2-1,3.9-1.3,5.5c-0.2,0.8-0.4,1.6-0.5,2.3l-0.3,1.9
			c-0.2,1.1-0.4,2-0.5,2.6c-0.1,0.3-0.1,0.5-0.1,0.7c0,0.1,0,0.2-0.1,0.2c0-0.1,0-0.2,0-0.2c0-0.2,0-0.4,0.1-0.7
			c0.1-0.6,0.2-1.5,0.4-2.7c0.1-0.6,0.2-1.2,0.3-1.9s0.3-1.5,0.5-2.3c0.4-1.6,0.7-3.5,1.3-5.5c0.3-1,0.6-2.1,0.9-3.2
			s0.7-2.2,1.1-3.4c0.7-2.4,1.7-4.8,2.7-7.4c4.6-11.1,10.9-21.4,18.8-30.5c1.9-2,3.6-4,5.4-5.7c0.9-0.9,1.7-1.7,2.5-2.5l2.5-2.2
			c1.5-1.4,3-2.6,4.3-3.6c0.7-0.5,1.3-1,1.8-1.4l1.6-1.1l2.2-1.5l0.6-0.4C126.1,365.4,126.2,365.4,126.2,365.4z"/>
		<path class="st4" d="M139.8,413.9c-0.2,0-0.5-0.1-0.7-0.1c-0.5-0.1-1.1-0.3-2-0.4c-19.1-3.8-38.7,2.8-51.5,17.4
			c-1.7,1.9-3.2,3.8-4.6,5.9c-0.5,0.7-0.9,1.3-1.1,1.7c-0.1,0.2-0.3,0.4-0.4,0.6c0.1-0.2,0.2-0.4,0.3-0.6c0.2-0.4,0.6-1,1.1-1.8
			c1.3-2.1,2.8-4.1,4.5-6c11-12.8,27.5-19.7,44.4-18.5c2.5,0.2,5,0.5,7.5,1.1c0.9,0.2,1.5,0.4,2,0.5
			C139.3,413.8,139.6,413.8,139.8,413.9z"/>
		<path class="st4" d="M101.8,334c0,0,0,0.1,0,0.3s-0.1,0.5-0.2,0.8c-0.2,0.7-0.4,1.7-0.7,3c-0.6,2.6-1.5,6.4-2.6,11
			c-2.3,9.3-5.6,22.1-9,36.3c-1.7,7.1-3.2,13.9-4.6,20.1s-2.4,11.8-3.2,16.5c-0.4,2.4-0.8,4.5-1.1,6.4s-0.6,3.5-0.8,4.8
			s-0.4,2.3-0.5,3c-0.1,0.3-0.1,0.6-0.1,0.8c0,0.1,0,0.2-0.1,0.3c0-0.1,0-0.2,0-0.3c0-0.2,0-0.5,0.1-0.8c0.1-0.7,0.2-1.8,0.4-3.1
			s0.4-3,0.7-4.8s0.6-4,1-6.4c0.8-4.7,1.9-10.3,3.1-16.5s2.8-13,4.5-20.1c3.4-14.2,6.8-27,9.1-36.3c1.2-4.6,2.1-8.4,2.8-11
			c0.3-1.3,0.6-2.3,0.8-3l0.2-0.8C101.7,334.1,101.8,334.1,101.8,334z"/>
		<path class="st4" d="M78.2,436c0-0.1,0-0.1-0.1-0.2l-0.2-0.6c-0.1-0.6-0.3-1.4-0.5-2.4c-0.4-2.1-1-5.2-1.7-9
			c-1.3-7.6-2.8-18.2-3.8-30c-0.5-5.9-0.7-11.5-0.8-16.6s0-9.7,0.1-13.6c0-1.9,0.2-3.7,0.3-5.2s0.2-2.9,0.3-3.9s0.2-1.9,0.2-2.5
			c0-0.3,0-0.5,0.1-0.6c0-0.1,0-0.1,0-0.2c0,0.1,0,0.1,0,0.2c0,0.2,0,0.4,0,0.6c0,0.6-0.1,1.4-0.1,2.5s-0.2,2.4-0.2,3.9
			s-0.2,3.3-0.2,5.2c-0.1,3.9-0.1,8.5,0,13.6s0.4,10.7,0.9,16.6c1,11.7,2.5,22.3,3.7,29.9c0.6,3.8,1.1,6.9,1.5,9
			c0.2,1,0.3,1.9,0.4,2.5c0,0.3,0.1,0.5,0.1,0.6C78.2,435.8,78.2,435.9,78.2,436z"/>
		<path class="st4" d="M79,438.2c-0.1-0.2-0.2-0.4-0.3-0.6c-0.2-0.5-0.4-1-0.7-1.8c-0.2-0.4-0.3-0.8-0.5-1.3s-0.4-1-0.7-1.5
			l-0.8-1.7c-0.3-0.6-0.6-1.2-0.9-1.9s-0.7-1.3-1-2s-0.8-1.4-1.3-2.1c-0.8-1.5-1.9-3-2.9-4.6c-2.4-3.4-5-6.7-7.7-9.9
			c-2.8-3.1-5.8-6.1-8.9-8.9c-1.5-1.3-2.8-2.5-4.2-3.5l-1.9-1.5l-1.8-1.4c-1.2-0.9-2.3-1.6-3.2-2.3s-1.8-1.2-2.5-1.6l-1.6-1
			c-0.2-0.1-0.4-0.2-0.5-0.4c0.2,0.1,0.4,0.2,0.6,0.3l1.7,0.9c0.7,0.4,1.6,0.9,2.5,1.6s2.1,1.4,3.3,2.2l1.9,1.3l2,1.5
			c1.4,1,2.8,2.3,4.2,3.5c3.2,2.8,6.2,5.8,9,8.9c2.8,3.2,5.4,6.5,7.8,10c1,1.6,2.1,3.2,2.9,4.7l1.2,2.2c0.3,0.7,0.7,1.4,1,2.1
			s0.7,1.3,0.9,1.9s0.5,1.2,0.7,1.7l0.6,1.5c0.2,0.5,0.3,0.9,0.4,1.3l0.6,1.8C79,437.8,79,438,79,438.2z"/>
		<path class="st4" d="M122.4,385.7c0,0.1-1.2,0.1-3.2,0.2c-5.2,0.3-10.4,1.3-15.3,2.9c-1.9,0.6-3.1,1.1-3.1,1
			c0.2-0.2,0.5-0.3,0.8-0.4c0.5-0.2,1.3-0.6,2.2-0.9c2.5-0.9,5-1.6,7.6-2.1c2.6-0.5,5.2-0.8,7.8-0.8c1,0,1.8,0,2.4,0
			C121.8,385.6,122.1,385.6,122.4,385.7z"/>
		<path class="st4" d="M130.1,423.6c-1.1-2.3-2.5-4.4-4.2-6.4c-1.8-1.8-3.8-3.4-6-4.7c0.7,0.2,1.4,0.5,2.1,0.9
			c3.2,1.9,5.8,4.6,7.4,8C129.7,422.1,130,422.8,130.1,423.6z"/>
		<path class="st4" d="M103.7,348.2c0.1,0.1-1.8,2-3.9,4.5s-3.5,4.8-3.7,4.7c0.8-1.8,2-3.5,3.3-5
			C100.6,350.8,102.1,349.4,103.7,348.2z"/>
		<path class="st4" d="M97.5,337.5c0.8,2.7,1.2,5.4,1.4,8.2c-0.5-1.3-0.8-2.7-0.9-4.1C97.6,340.3,97.5,338.9,97.5,337.5z"/>
		<path class="st4" d="M78.2,371.1c-0.9,2.2-1.9,4.3-3,6.3c-1,2.1-2.2,4.2-3.4,6.1c0.9-2.2,1.9-4.3,3-6.3
			C75.8,375.1,77,373.1,78.2,371.1z"/>
		<path class="st4" d="M66.8,359.7c1,1.4,1.8,3,2.6,4.6c0.9,1.5,1.6,3.1,2.1,4.8c-1-1.4-1.8-3-2.6-4.6
			C68.1,363,67.4,361.4,66.8,359.7z"/>
		<path class="st4" d="M50,398.8c0,0.1-2.1-0.3-4.6-0.4s-4.6-0.1-4.6-0.2c1.5-0.4,3.1-0.5,4.7-0.3C47,397.9,48.5,398.2,50,398.8z"/>
		<path class="st4" d="M61.5,433.3l5.7,30.1c0.4,2,2.1,3.4,4.1,3.4h16.9c2.1,0,3.8-1.5,4.2-3.5l5-30L61.5,433.3z"/>
		<polygon class="st10" points="63.3,443.1 95.7,443.1 97.4,433.3 61.5,433.3 		"/>
		<polygon class="st3" points="63.3,443.1 64,446.7 95.2,446.7 95.7,443.1 		"/>
	</g>
</g>
</svg>
